<svg width="178" height="57" fill="none" xmlns="http://www.w3.org/2000/svg"><path d="M23.71 41.11c0 .82.02 1.47.06 1.95.06.46.17.82.33 1.08.18.24.44.4.78.48.36.08.84.14 1.44.18V46h-9.45v-1.2c.58-.04 1.04-.1 1.38-.18.36-.08.63-.24.81-.48.2-.24.33-.58.39-1.02.06-.44.09-1.04.09-1.8v-3.75c0-1.18-.02-2.13-.06-2.85-.04-.74-.09-1.24-.15-1.5s-.14-.47-.24-.63a.864.864 0 0 0-.45-.39c-.2-.1-.45-.16-.75-.18-.3-.04-.68-.06-1.14-.06v-1.02l5.79-1.14.39 2.64h.12c.66-.84 1.44-1.49 2.34-1.95.9-.46 1.89-.69 2.97-.69 1.28 0 2.31.18 3.09.54.8.34 1.51.92 2.13 1.74.34.46.64 1.06.9 1.8.26.72.39 1.72.39 3v4.23c0 .82.02 1.47.06 1.95.06.46.17.82.33 1.08.18.24.44.4.78.48.34.08.8.14 1.38.18V46h-9.39v-1.2c.6-.02 1.07-.07 1.41-.15.36-.1.63-.27.81-.51.18-.24.3-.58.36-1.02.06-.46.09-1.06.09-1.8v-4.08c0-1.02-.06-1.88-.18-2.58-.12-.7-.32-1.26-.6-1.68-.26-.44-.61-.75-1.05-.93-.44-.2-.99-.3-1.65-.3-.64 0-1.19.18-1.65.54-.46.36-.86.86-1.2 1.5-.18.36-.34.83-.48 1.41a8.43 8.43 0 0 0-.18 1.77v4.14Zm28.037-6.09c0-.8-.02-1.43-.06-1.89-.04-.48-.15-.84-.33-1.08-.18-.26-.45-.43-.81-.51-.34-.1-.81-.18-1.41-.24v-1.2h6.78v9.09c0 1.22.01 2.18.03 2.88.04.68.1 1.19.18 1.53.06.26.13.47.21.63.08.14.21.26.39.36.18.08.42.14.72.18.32.02.73.03 1.23.03v1.17l-5.97.36-.33-2.67h-.12c-.52.84-1.25 1.49-2.19 1.95-.94.46-1.99.69-3.15.69-2.14 0-3.77-.76-4.89-2.28-.86-1.16-1.29-2.81-1.29-4.95v-4.05c0-.82-.02-1.46-.06-1.92-.04-.48-.15-.84-.33-1.08-.16-.24-.41-.4-.75-.48-.34-.1-.81-.18-1.41-.24v-1.2h6.72v8.49c0 2.02.25 3.49.75 4.41.5.9 1.3 1.35 2.4 1.35 1.18 0 2.09-.54 2.73-1.62.64-1.04.96-2.57.96-4.59v-3.12Zm15.03 6.09c0 .82.02 1.47.06 1.95.06.46.17.82.33 1.08.18.24.44.4.78.48.36.08.84.14 1.44.18V46h-9.45v-1.2c.58-.04 1.04-.1 1.38-.18.36-.08.63-.24.81-.48.2-.24.33-.58.39-1.02.06-.44.09-1.04.09-1.8v-3.75c0-1.18-.02-2.13-.06-2.85-.04-.74-.09-1.24-.15-1.5s-.14-.47-.24-.63a.864.864 0 0 0-.45-.39c-.2-.1-.45-.16-.75-.18-.3-.04-.68-.06-1.14-.06v-1.02l5.79-1.14.39 2.64h.12c.66-.84 1.44-1.49 2.34-1.95.9-.46 1.89-.69 2.97-.69 1.28 0 2.31.18 3.09.54.8.34 1.51.92 2.13 1.74.34.46.64 1.06.9 1.8.26.72.39 1.72.39 3v4.23c0 .82.02 1.47.06 1.95.06.46.17.82.33 1.08.18.24.44.4.78.48.34.08.8.14 1.38.18V46h-9.39v-1.2c.6-.02 1.07-.07 1.41-.15.36-.1.63-.27.81-.51.18-.24.3-.58.36-1.02.06-.46.09-1.06.09-1.8v-4.08c0-1.02-.06-1.88-.18-2.58-.12-.7-.32-1.26-.6-1.68-.26-.44-.61-.75-1.05-.93-.44-.2-.99-.3-1.65-.3-.64 0-1.19.18-1.65.54-.46.36-.86.86-1.2 1.5-.18.36-.34.83-.48 1.41a8.43 8.43 0 0 0-.18 1.77v4.14Zm14.836-9.36V30.4c1.2-.34 2.2-.85 3-1.53.82-.7 1.43-1.5 1.83-2.4h1.53v3.63h3.45v1.65h-3.45v9.21c0 1.24.13 2.12.39 2.64.28.52.74.78 1.38.78.78 0 1.37-.36 1.77-1.08l.63.87c-.56 1.42-1.88 2.13-3.96 2.13-1.38 0-2.46-.32-3.24-.96-.76-.64-1.14-1.54-1.14-2.7V31.75h-2.19Zm18.415 9.33c0 .8.03 1.44.09 1.92s.18.85.36 1.11c.18.26.44.44.78.54.34.08.8.13 1.38.15V46h-9.45v-1.2c.56-.02 1.01-.08 1.35-.18.36-.12.63-.3.81-.54.2-.26.33-.61.39-1.05.08-.46.12-1.04.12-1.74V37.6c0-1.16-.02-2.11-.06-2.85-.04-.76-.09-1.28-.15-1.56-.1-.5-.33-.83-.69-.99-.34-.16-.97-.24-1.89-.24v-1.02l6.96-1.14v11.28Zm-4.41-17.64c0-.66.22-1.21.66-1.65.46-.46 1.01-.69 1.65-.69.66 0 1.21.23 1.65.69.46.44.69.99.69 1.65 0 .64-.23 1.19-.69 1.65-.44.44-.99.66-1.65.66-.64 0-1.19-.22-1.65-.66-.44-.46-.66-1.01-.66-1.65Zm21.49 11.58c0-.8-.02-1.43-.06-1.89-.04-.48-.15-.84-.33-1.08-.18-.26-.45-.43-.81-.51-.34-.1-.81-.18-1.41-.24v-1.2h6.78v9.09c0 1.22.01 2.18.03 2.88.04.68.1 1.19.18 1.53.06.26.13.47.21.63.08.14.21.26.39.36.18.08.42.14.72.18.32.02.73.03 1.23.03v1.17l-5.97.36-.33-2.67h-.12c-.52.84-1.25 1.49-2.19 1.95-.94.46-1.99.69-3.15.69-2.14 0-3.77-.76-4.89-2.28-.86-1.16-1.29-2.81-1.29-4.95v-4.05c0-.82-.02-1.46-.06-1.92-.04-.48-.15-.84-.33-1.08-.16-.24-.41-.4-.75-.48-.34-.1-.81-.18-1.41-.24v-1.2h6.72v8.49c0 2.02.25 3.49.75 4.41.5.9 1.3 1.35 2.4 1.35 1.18 0 2.09-.54 2.73-1.62.64-1.04.96-2.57.96-4.59v-3.12Zm15.06 6.03c0 .84.02 1.5.06 1.98.04.48.15.85.33 1.11.18.24.44.4.78.48.34.08.81.14 1.41.18V46h-9.48v-1.2c.6-.04 1.08-.1 1.44-.18.36-.08.63-.24.81-.48.18-.24.3-.58.36-1.02.06-.46.09-1.07.09-1.83v-3.72c0-1.14-.02-2.09-.06-2.85-.02-.76-.07-1.28-.15-1.56-.06-.26-.14-.46-.24-.6a.759.759 0 0 0-.42-.36c-.18-.1-.42-.16-.72-.18-.3-.04-.69-.06-1.17-.06v-1.02l5.79-1.14.36 2.61h.18c.84-.94 1.68-1.61 2.52-2.01.86-.4 1.85-.6 2.97-.6 1.32 0 2.41.23 3.27.69.86.46 1.51 1.12 1.95 1.98h.12c.72-.84 1.58-1.49 2.58-1.95 1-.48 2.07-.72 3.21-.72 1.2 0 2.24.15 3.12.45.9.3 1.6.73 2.1 1.29.4.46.69 1.06.87 1.8.2.74.3 1.77.3 3.09v4.62c0 .82.02 1.47.06 1.95.06.48.18.85.36 1.11.18.26.44.43.78.51.34.08.81.14 1.41.18V46h-9.48v-1.2c.6-.02 1.07-.07 1.41-.15.36-.1.63-.27.81-.51.2-.26.32-.61.36-1.05.06-.44.09-1.04.09-1.8v-3.93c0-1.04-.06-1.92-.18-2.64-.12-.72-.31-1.3-.57-1.74-.26-.44-.61-.75-1.05-.93-.42-.2-.94-.3-1.56-.3-.7 0-1.28.17-1.74.51-.44.34-.81.78-1.11 1.32-.52.94-.78 2.11-.78 3.51v3.96c0 .82.02 1.47.06 1.95.04.48.15.85.33 1.11.18.26.44.43.78.51.36.08.85.14 1.47.18V46h-9.51v-1.2c.6-.04 1.07-.1 1.41-.18.36-.08.63-.24.81-.48.2-.24.32-.58.36-1.02.06-.46.09-1.07.09-1.83v-3.93c0-1.04-.06-1.92-.18-2.64-.12-.72-.32-1.3-.6-1.74-.26-.44-.61-.75-1.05-.93-.44-.2-.99-.3-1.65-.3-.66 0-1.21.16-1.65.48-.42.32-.77.75-1.05 1.29-.26.48-.46 1.03-.6 1.65a8.69 8.69 0 0 0-.21 1.92v3.96Zm27.073 3.03c0-.64.21-1.18.63-1.62.44-.46.98-.69 1.62-.69.66 0 1.21.23 1.65.69.44.44.66.98.66 1.62 0 .62-.22 1.15-.66 1.59-.44.42-.99.63-1.65.63-.64 0-1.18-.21-1.62-.63a2.22 2.22 0 0 1-.63-1.59Z" fill="#1C1C1C"/><path fill="#1C1C1C" d="M0 0h58v57H0z"/><path d="M23.71 41.11c0 .82.02 1.47.06 1.95.06.46.17.82.33 1.08.18.24.44.4.78.48.36.08.84.14 1.44.18V46h-9.45v-1.2c.58-.04 1.04-.1 1.38-.18.36-.08.63-.24.81-.48.2-.24.33-.58.39-1.02.06-.44.09-1.04.09-1.8v-3.75c0-1.18-.02-2.13-.06-2.85-.04-.74-.09-1.24-.15-1.5s-.14-.47-.24-.63a.864.864 0 0 0-.45-.39c-.2-.1-.45-.16-.75-.18-.3-.04-.68-.06-1.14-.06v-1.02l5.79-1.14.39 2.64h.12c.66-.84 1.44-1.49 2.34-1.95.9-.46 1.89-.69 2.97-.69 1.28 0 2.31.18 3.09.54.8.34 1.51.92 2.13 1.74.34.46.64 1.06.9 1.8.26.72.39 1.72.39 3v4.23c0 .82.02 1.47.06 1.95.06.46.17.82.33 1.08.18.24.44.4.78.48.34.08.8.14 1.38.18V46h-9.39v-1.2c.6-.02 1.07-.07 1.41-.15.36-.1.63-.27.81-.51.18-.24.3-.58.36-1.02.06-.46.09-1.06.09-1.8v-4.08c0-1.02-.06-1.88-.18-2.58-.12-.7-.32-1.26-.6-1.68-.26-.44-.61-.75-1.05-.93-.44-.2-.99-.3-1.65-.3-.64 0-1.19.18-1.65.54-.46.36-.86.86-1.2 1.5-.18.36-.34.83-.48 1.41a8.43 8.43 0 0 0-.18 1.77v4.14Zm28.037-6.09c0-.8-.02-1.43-.06-1.89-.04-.48-.15-.84-.33-1.08-.18-.26-.45-.43-.81-.51-.34-.1-.81-.18-1.41-.24v-1.2h6.78v9.09c0 1.22.01 2.18.03 2.88.04.68.1 1.19.18 1.53.06.26.13.47.21.63.08.14.21.26.39.36.18.08.42.14.72.18.32.02.73.03 1.23.03v1.17l-5.97.36-.33-2.67h-.12c-.52.84-1.25 1.49-2.19 1.95-.94.46-1.99.69-3.15.69-2.14 0-3.77-.76-4.89-2.28-.86-1.16-1.29-2.81-1.29-4.95v-4.05c0-.82-.02-1.46-.06-1.92-.04-.48-.15-.84-.33-1.08-.16-.24-.41-.4-.75-.48-.34-.1-.81-.18-1.41-.24v-1.2h6.72v8.49c0 2.02.25 3.49.75 4.41.5.9 1.3 1.35 2.4 1.35 1.18 0 2.09-.54 2.73-1.62.64-1.04.96-2.57.96-4.59v-3.12Z" fill="#fff"/></svg>